{"title":"Zoo.S01E10.HDTV.480p.x264.AAC-VYTO [P2PDL]","uid":12330115,"size":147516737,"categoryP":"video","categoryS":"tv_shows","magnet":"?xt=urn:btih:d3b1a47dbd38e08231ec769097031d5e4d05f16f&amp;dn=Zoo.S01E10.HDTV.480p.x264.AAC-VYTO+%5BP2PDL%5D&amp;tr=udp%3A%2F%2Ftracker.openbittorrent.com%3A80&amp;tr=udp%3A%2F%2Fopen.demonii.com%3A1337&amp;tr=udp%3A%2F%2Ftracker.coppersurfer.tk%3A6969&amp;tr=udp%3A%2F%2Fexodus.desync.com%3A6969","seeders":2,"leechers":1,"uploader":"ValidusVyto","files":6,"time":1441175986,"description":"____    ____ ____    ____ .___________.  ______   \n     /   /      /   / |           | /  __    \n    /   /      /   /  `---|  |----`|  |  |  | \n        /     _    _/       |  |     |  |  |  | \n       /        |  |         |  |     |  `--'  | \n    __/         |__|         |__|      ______/  \n                                                  \nPresenting Small Encodes with quality for years!\n                                                                                                   \n                                                                                                   \n\nZoo.S01E10.HDTV.480p.x264.AAC-VYTO\n\n\nGeneral\nFormat                         : MPEG-4\nFile size                      : 136 MiB\nDuration                       : 40mn 2s\nOverall bit rate               : 474 Kbps\n\nVideo\nFormat                         : AVC\nBit rate                       : 439 Kbps\nWidth                          : 720 pixels\nHeight                         : 400 pixels\nDisplay aspect ratio           : 16:9\nFrame rate mode                : Constant\nFrame rate                     : 23.976 fps\nBit depth                      : 8 bits\nStream size                    : 126 MiB (93%)\nWriting library                : x264 core 148 r2597\n\nAudio\nFormat                         : AAC\nBit rate mode                  : Variable\nBit rate                       : 32.0 Kbps\nChannel(s)                     : 2 channels \nChannel positions              : Front: L R \nSampling rate                  : 48.0 KHz\nStream size                    : 9.16 MiB (7%)\n\n\nScreenshots:\n &lt;a href=&quot;\nhttp://ititli.com/V6&quot; rel=&quot;nofollow&quot; target=&quot;_NEW&quot;&gt;\nhttp://ititli.com/V6&lt;/a&gt; &lt;a href=&quot;\nhttp://ititli.com/V8&quot; rel=&quot;nofollow&quot; target=&quot;_NEW&quot;&gt;\nhttp://ititli.com/V8&lt;/a&gt; &lt;a href=&quot;\nhttp://ititli.com/Ve&quot; rel=&quot;nofollow&quot; target=&quot;_NEW&quot;&gt;\nhttp://ititli.com/Ve&lt;/a&gt; &lt;a href=&quot;\nhttp://ititli.com/Vj&quot; rel=&quot;nofollow&quot; target=&quot;_NEW&quot;&gt;\nhttp://ititli.com/Vj&lt;/a&gt; &lt;a href=&quot;\nhttp://ititli.com/Vk&quot; rel=&quot;nofollow&quot; target=&quot;_NEW&quot;&gt;\nhttp://ititli.com/Vk&lt;/a&gt; &lt;a href=&quot;\nhttp://ititli.com/Vo&quot; rel=&quot;nofollow&quot; target=&quot;_NEW&quot;&gt;\nhttp://ititli.com/Vo&lt;/a&gt; &lt;a href=&quot;\nhttp://ititli.com/VG&quot; rel=&quot;nofollow&quot; target=&quot;_NEW&quot;&gt;\nhttp://ititli.com/VG&lt;/a&gt; &lt;a href=&quot;\nhttp://ititli.com/VH&quot; rel=&quot;nofollow&quot; target=&quot;_NEW&quot;&gt;\nhttp://ititli.com/VH&lt;/a&gt; &lt;a href=&quot;\nhttp://ititli.com/VM&quot; rel=&quot;nofollow&quot; target=&quot;_NEW&quot;&gt;\nhttp://ititli.com/VM&lt;/a&gt; &lt;a href=&quot;\nhttp://ititli.com/VU&quot; rel=&quot;nofollow&quot; target=&quot;_NEW&quot;&gt;\nhttp://ititli.com/VU&lt;/a&gt; &lt;a href=&quot;\nhttp://ititli.com/Vh&quot; rel=&quot;nofollow&quot; target=&quot;_NEW&quot;&gt;\nhttp://ititli.com/Vh&lt;/a&gt; &lt;a href=&quot;\nhttp://ititli.com/Vs&quot; rel=&quot;nofollow&quot; target=&quot;_NEW&quot;&gt;\nhttp://ititli.com/Vs&lt;/a&gt; &lt;a href=&quot;\nhttp://ititli.com/VY&quot; rel=&quot;nofollow&quot; target=&quot;_NEW&quot;&gt;\nhttp://ititli.com/VY&lt;/a&gt; &lt;a href=&quot;\nhttp://ititli.com/V4&quot; rel=&quot;nofollow&quot; target=&quot;_NEW&quot;&gt;\nhttp://ititli.com/V4&lt;/a&gt; &lt;a href=&quot;\nhttp://ititli.com/VK&quot; rel=&quot;nofollow&quot; target=&quot;_NEW&quot;&gt;\nhttp://ititli.com/VK&lt;/a&gt;\n\n----------------------------------------------------------------------------------------------------\n\n\nEncoder Notes: Looking For Early Access To Anything You Can Provide DVDScr, R5, DVDR, BluRay, Direct\nAudio, Music Releases and Seedboxes. If You Got anything to offer please contact us.\n\nSupport us by donating BC - 1FgwdzPsd1y25Gea8wP1qni35uGCtmkRCD","torrent":{"xt":"urn:btih:d3b1a47dbd38e08231ec769097031d5e4d05f16f","amp;dn":"Zoo.S01E10.HDTV.480p.x264.AAC-VYTO+%5BP2PDL%5D","amp;tr":["udp%3A%2F%2Ftracker.openbittorrent.com%3A80","udp%3A%2F%2Fopen.demonii.com%3A1337","udp%3A%2F%2Ftracker.coppersurfer.tk%3A6969","udp%3A%2F%2Fexodus.desync.com%3A6969"],"infoHash":"d3b1a47dbd38e08231ec769097031d5e4d05f16f","infoHashBuffer":{"type":"Buffer","data":[211,177,164,125,189,56,224,130,49,236,118,144,151,3,29,94,77,5,241,111]},"announce":[],"urlList":[]}}